REM DIRINDEX 1\2,1\4,1\5,1\6,1\7,1\3\8,1\3\9,1\3\10
REM DIRNAME folder01,folder02,folder03,folder04,folder05,folder06,folder07,folder08,folder09,folder10
TITLE ""
FILE "DB4500_5th_5C_13.mp3" MP3
  TRACK 01 AUDIO
    TITLE "8:cjc113_3846"
    INDEX 01 00:00:00
  TRACK 02 AUDIO
    TITLE "0:"
    INDEX 01 00:01:17
  TRACK 03 AUDIO
    TITLE "9:cjc113_3847"
    INDEX 01 00:01:24
  TRACK 04 AUDIO
    TITLE "0:"
    INDEX 01 00:02:42
  TRACK 05 AUDIO
    TITLE "10:cjc113_3848"
    INDEX 01 00:02:49
  TRACK 06 AUDIO
    TITLE "0:"
    INDEX 01 00:05:40
  TRACK 07 AUDIO
    TITLE "8:cjc113_3849"
    INDEX 01 00:05:73
  TRACK 08 AUDIO
    TITLE "0:"
    INDEX 01 00:07:25
  TRACK 09 AUDIO
    TITLE "9:cjc113_3850"
    INDEX 01 00:07:35
  TRACK 10 AUDIO
    TITLE "0:"
    INDEX 01 00:09:10
  TRACK 11 AUDIO
    TITLE "10:cjc113_3851"
    INDEX 01 00:09:14
  TRACK 12 AUDIO
    TITLE "0:"
    INDEX 01 00:12:50
  TRACK 13 AUDIO
    TITLE "8:cjc113_3852"
    INDEX 01 00:13:06
  TRACK 14 AUDIO
    TITLE "0:"
    INDEX 01 00:14:25
  TRACK 15 AUDIO
    TITLE "9:cjc113_3853"
    INDEX 01 00:14:37
  TRACK 16 AUDIO
    TITLE "0:"
    INDEX 01 00:15:40
  TRACK 17 AUDIO
    TITLE "10:cjc113_3854"
    INDEX 01 00:15:52
  TRACK 18 AUDIO
    TITLE "0:"
    INDEX 01 00:19:32
  TRACK 19 AUDIO
    TITLE "8:cjc113_3855"
    INDEX 01 00:19:63
  TRACK 20 AUDIO
    TITLE "0:"
    INDEX 01 00:21:04
  TRACK 21 AUDIO
    TITLE "9:cjc113_3856"
    INDEX 01 00:21:11
  TRACK 22 AUDIO
    TITLE "0:"
    INDEX 01 00:22:46
  TRACK 23 AUDIO
    TITLE "10:cjc113_3857"
    INDEX 01 00:22:56
  TRACK 24 AUDIO
    TITLE "0:"
    INDEX 01 00:26:07
  TRACK 25 AUDIO
    TITLE "8:cjc113_3858"
    INDEX 01 00:26:38
  TRACK 26 AUDIO
    TITLE "0:"
    INDEX 01 00:27:61
  TRACK 27 AUDIO
    TITLE "9:cjc113_3859"
    INDEX 01 00:27:71
  TRACK 28 AUDIO
    TITLE "0:"
    INDEX 01 00:29:33
  TRACK 29 AUDIO
    TITLE "10:cjc113_3860"
    INDEX 01 00:29:38
  TRACK 30 AUDIO
    TITLE "0:"
    INDEX 01 00:32:70
  TRACK 31 AUDIO
    TITLE "8:cjc113_3861"
    INDEX 01 00:33:42
  TRACK 32 AUDIO
    TITLE "0:"
    INDEX 01 00:35:04
  TRACK 33 AUDIO
    TITLE "9:cjc113_3862"
    INDEX 01 00:35:17
  TRACK 34 AUDIO
    TITLE "0:"
    INDEX 01 00:36:31
  TRACK 35 AUDIO
    TITLE "10:cjc113_3863"
    INDEX 01 00:36:38
  TRACK 36 AUDIO
    TITLE "0:"
    INDEX 01 00:39:51
  TRACK 37 AUDIO
    TITLE "8:cjc113_3864"
    INDEX 01 00:40:15
  TRACK 38 AUDIO
    TITLE "0:"
    INDEX 01 00:41:16
  TRACK 39 AUDIO
    TITLE "9:cjc113_3865"
    INDEX 01 00:41:34
  TRACK 40 AUDIO
    TITLE "0:"
    INDEX 01 00:42:59
  TRACK 41 AUDIO
    TITLE "10:cjc113_3866"
    INDEX 01 00:42:72
  TRACK 42 AUDIO
    TITLE "0:"
    INDEX 01 00:47:19
  TRACK 43 AUDIO
    TITLE "8:cjc113_3867"
    INDEX 01 00:47:60
  TRACK 44 AUDIO
    TITLE "0:"
    INDEX 01 00:49:02
  TRACK 45 AUDIO
    TITLE "9:cjc113_3868"
    INDEX 01 00:49:16
  TRACK 46 AUDIO
    TITLE "0:"
    INDEX 01 00:50:41
  TRACK 47 AUDIO
    TITLE "10:cjc113_3869"
    INDEX 01 00:50:56
  TRACK 48 AUDIO
    TITLE "0:"
    INDEX 01 00:53:41
  TRACK 49 AUDIO
    TITLE "8:cjc113_3870"
    INDEX 01 00:54:07
  TRACK 50 AUDIO
    TITLE "0:"
    INDEX 01 00:55:28
  TRACK 51 AUDIO
    TITLE "9:cjc113_3871"
    INDEX 01 00:55:46
  TRACK 52 AUDIO
    TITLE "0:"
    INDEX 01 00:56:41
  TRACK 53 AUDIO
    TITLE "10:cjc113_3872"
    INDEX 01 00:56:59
  TRACK 54 AUDIO
    TITLE "0:"
    INDEX 01 01:00:53
  TRACK 55 AUDIO
    TITLE "8:cjc113_3873"
    INDEX 01 01:01:13
  TRACK 56 AUDIO
    TITLE "0:"
    INDEX 01 01:02:28
  TRACK 57 AUDIO
    TITLE "9:cjc113_3874"
    INDEX 01 01:02:46
  TRACK 58 AUDIO
    TITLE "0:"
    INDEX 01 01:04:11
  TRACK 59 AUDIO
    TITLE "10:cjc113_3875"
    INDEX 01 01:04:27
  TRACK 60 AUDIO
    TITLE "0:"
    INDEX 01 01:08:29
  TRACK 61 AUDIO
    TITLE "8:cjc113_3876"
    INDEX 01 01:08:66
  TRACK 62 AUDIO
    TITLE "0:"
    INDEX 01 01:10:10
  TRACK 63 AUDIO
    TITLE "9:cjc113_3877"
    INDEX 01 01:10:26
  TRACK 64 AUDIO
    TITLE "0:"
    INDEX 01 01:11:58
  TRACK 65 AUDIO
    TITLE "10:cjc113_3878"
    INDEX 01 01:11:74
  TRACK 66 AUDIO
    TITLE "0:"
    INDEX 01 01:16:18
  TRACK 67 AUDIO
    TITLE "8:cjc113_3879"
    INDEX 01 01:16:60
  TRACK 68 AUDIO
    TITLE "0:"
    INDEX 01 01:18:07
  TRACK 69 AUDIO
    TITLE "9:cjc113_3880"
    INDEX 01 01:18:23
  TRACK 70 AUDIO
    TITLE "0:"
    INDEX 01 01:19:74
  TRACK 71 AUDIO
    TITLE "10:cjc113_3881"
    INDEX 01 01:20:10
  TRACK 72 AUDIO
    TITLE "0:"
    INDEX 01 01:23:56
